# xmcd
#
# Track frame offsets:
#	150
#	15454
#	29121
#	44369
#	57666
#	71103
#	85243
#	102741
#	118288
#	130631
#	146227
#	162366
#
# Disc length: 2331 seconds
#
# Revision: 1
# Processed by: cddbd v1.5.1PL2 Copyright (c) Steve Scherf et al.
# Submitted via: EasyCDDAExtractor 8.2.3.1
#
DISCID=b909190c
DTITLE=Jacó e Jacózinho - Ninho de cobra
DYEAR=1975
DGENRE=Sertanejo
TTITLE0=Filho pobre
TTITLE1=Ninho de cobra
TTITLE2=Longe do asfalto
TTITLE3=O bem amado
TTITLE4=Cachorro valente
TTITLE5=Xereta
TTITLE6=O caçador
TTITLE7=Meus parabéns
TTITLE8=Baile de Barraca
TTITLE9=Soja e trigo
TTITLE10=Fazenda Santa Luzia
TTITLE11=Despedida de nortista
EXTD=
EXTT0=
EXTT1=
EXTT2=
EXTT3=
EXTT4=
EXTT5=
EXTT6=
EXTT7=
EXTT8=
EXTT9=
EXTT10=
EXTT11=
PLAYORDER=
